<?xml version="1.0" standalone="no"?>
<!DOCTYPE svg PUBLIC "-//W3C//DTD SVG 20010904//EN"
 "http://www.w3.org/TR/2001/REC-SVG-20010904/DTD/svg10.dtd">
<svg version="1.0" xmlns="http://www.w3.org/2000/svg"
 width="700.000000pt" height="700.000000pt" viewBox="0 0 700.000000 700.000000"
 preserveAspectRatio="xMidYMid meet">
<metadata>
Created by potrace 1.11, written by Peter Selinger 2001-2013
</metadata>
<g transform="translate(0.000000,700.000000) scale(0.100000,-0.100000)"
fill="#000000" stroke="none">
<path d="M3298 6996 c-1 -2 -46 -6 -98 -10 -115 -8 -143 -12 -285 -37 -60 -11
-123 -22 -140 -25 -131 -23 -490 -134 -612 -190 -28 -13 -55 -24 -58 -24 -13
0 -304 -149 -381 -195 -580 -348 -1028 -822 -1333 -1408 -125 -241 -209 -463
-281 -742 -27 -103 -32 -125 -45 -200 -3 -16 -8 -41 -10 -55 -12 -58 -15 -75
-21 -129 -3 -31 -8 -64 -10 -73 -25 -138 -25 -650 1 -823 5 -33 11 -76 20
-150 4 -27 11 -70 17 -95 5 -25 11 -52 13 -61 26 -128 96 -376 124 -444 5 -11
29 -74 55 -141 211 -548 618 -1086 1101 -1458 55 -43 107 -83 115 -89 21 -16
160 -109 185 -123 11 -6 61 -35 110 -64 148 -86 361 -185 545 -253 61 -23 265
-85 299 -92 9 -2 43 -10 76 -19 33 -8 76 -18 95 -21 19 -3 53 -10 75 -15 22
-5 60 -11 85 -15 25 -3 52 -8 60 -10 17 -4 89 -12 230 -24 94 -9 546 -6 586 3
11 2 54 7 95 11 40 4 76 8 79 10 3 1 28 6 55 9 380 50 884 233 1249 453 312
190 537 374 806 662 43 47 132 154 175 211 27 36 53 66 57 68 4 2 8 10 8 17 0
7 4 15 8 17 4 2 38 48 74 103 322 489 510 1030 564 1625 15 162 8 666 -11 722
-2 7 -6 37 -10 67 -3 29 -7 56 -9 60 -2 3 -7 28 -10 55 -44 325 -217 804 -416
1146 -41 71 -168 269 -180 280 -3 3 -32 41 -64 85 -32 44 -64 85 -70 90 -6 6
-27 30 -46 55 -19 25 -44 54 -55 66 -11 12 -43 45 -71 75 -114 119 -246 241
-383 352 -268 217 -650 425 -1011 552 -149 52 -371 112 -480 130 -19 3 -42 8
-50 10 -8 2 -35 6 -60 9 -25 3 -54 8 -65 10 -11 2 -51 7 -90 11 -38 4 -81 9
-95 11 -31 5 -507 14 -512 10z"/>
</g>
</svg>
